<svg width="20" height="20" viewBox="0 0 20 20" fill="none" xmlns="http://www.w3.org/2000/svg">
<path d="M1.28034 0.219675C0.987445 -0.0732209 0.512571 -0.0732257 0.219675 0.219665C-0.0732209 0.512555 -0.0732257 0.987429 0.219665 1.28032L4.72545 5.7862L1.60908 6.71228C0.654548 6.99594 0 7.87328 0 8.86907V11.131C0 12.1267 0.654462 13.004 1.60891 13.2877L3.999 13.9984L4 14.4992L4.0049 14.6988C4.10892 16.8152 5.8578 18.4992 8 18.4992C9.55844 18.4992 10.9378 17.6005 11.595 16.2555L16.7179 17.7789L18.7194 19.7805C19.0123 20.0734 19.4872 20.0734 19.7801 19.7805C20.073 19.4876 20.073 19.0127 19.7801 18.7198L1.28034 0.219675ZM14.4912 15.5522L2.0363 11.8499C1.71815 11.7553 1.5 11.4629 1.5 11.131V8.86907C1.5 8.53714 1.71818 8.24469 2.03636 8.15014L5.93178 6.99256L14.4912 15.5522ZM5.499 14.4444L10.1238 15.8197C9.67834 16.535 8.88524 16.9992 8 16.9992C6.61929 16.9992 5.5 15.8799 5.5 14.4992L5.499 14.4444ZM18.5 4.263V15.3183L19.815 16.6333C19.934 16.3591 20 16.0564 20 15.7384V4.263C20 4.04599 19.9686 3.83011 19.9068 3.62208C19.5528 2.43092 18.3002 1.75225 17.1091 2.10622L7.99616 4.81426L9.20249 6.02061L17.5364 3.54408C17.9334 3.42609 18.3509 3.65231 18.4689 4.04936C18.4895 4.11871 18.5 4.19066 18.5 4.263Z" fill="#212121"/>
</svg>
